<svg xmlns="http://www.w3.org/2000/svg" version="1.1" xmlns:xlink="http://www.w3.org/1999/xlink" viewBox="0 0 9.7193373046875 11.26509517002297"><g transform="matrix(0.8571428571428572,0,0,0.8571428571428572,1.3884767578125001,8.37601475330258)"><g transform="matrix(1,0,0,1,0,0)" clip-path="url(#SvgjsClipPath69593)"><g clip-path="url(#SvgjsClipPath69591bf799424-4096-4452-953e-8729a46e071f)"><path d=" M 0.026004472244344927 -4.466772538938745 C 0.16620256943769648 -5.6918779354173665 0.8619815121556962 -6.7844620415871155 1.9128237405939803 -7.429651432284574 C 1.9128237405940032 -7.439799519014078 2.224424367940062 -7.60334680961008 2.2571338260592646 -7.619475018876609 C 1.49484941842261 -6.032477348633421 1.1894101294480257 -4.945182341901003 1.1148398135696427 -3.944055464452135 C 1.0932276655288928 -3.6949462268677546 1.0953210447871242 -3.4443474924724162 1.1210917598583516 -3.195634068151321 C 0.6958688043087409 -3.4656456614898685 0.3311719374672491 -3.6900814724628894 0.026004472244344927 -4.466772538938745 Z" fill="#3a868f" transform="matrix(1,0,0,1,0,0)" fill-rule="evenodd"></path></g><g clip-path="url(#SvgjsClipPath69591bf799424-4096-4452-953e-8729a46e071f)"><path d=" M 2.0006228123876557 -0.5363823054355166 C 0.767751151960588 -1.250524063860758 0.006223752188237007 -2.565055554572856 0 -3.989812462652119 C 0.2664418146168115 -3.4732340905085373 0.6329629152884857 -3.014805513836526 1.0782342150096627 -2.64120422263502 C 1.2568066421013144 -2.489854090788847 1.3970494282672627 -2.29841352857959 1.4875101771272037 -2.082515805009016 C 1.6612055544526803 -1.681666379193664 1.9250558094197412 -1.0182352092524347 2.0006228123876557 -0.5363823054355166 Z" fill="#a7db25" transform="matrix(1,0,0,1,0,0)" fill-rule="evenodd"></path></g><g clip-path="url(#SvgjsClipPath69591bf799424-4096-4452-953e-8729a46e071f)"><path d=" M 2.2922896979436334 -6.481348970579454 C 2.6901490624904763 -4.531647807673778 3.5789221225769925 -2.0365775909745665 3.168830689204411 -0.1799307590617394 C 3.1623975270812337 -0.14903345928709122 3.1556019332891645 -0.11895163076749427 3.1488063394970727 -0.08932284183404082 C 2.9784625795014588 -0.12649605442592993 2.8107719198004295 -0.174926569863052 2.6468384780556153 -0.2342955093983612 C 2.4781265361776366 -0.8024977583332804 2.19977901445414 -1.4098426275105567 1.897148570913636 -2.1092451405911836 C 1.6757934291263499 -2.620817441258784 1.6299458230091348 -3.2425689692752675 1.6854884762697107 -3.891684088294525 C 1.702703980542992 -4.092561840788338 1.7299769636285256 -4.2961578307989825 1.7645891880095113 -4.499844428726856 C 1.8871252615852072 -5.173415441053285 2.0635934363496276 -5.8360498012736155 2.2922896979436103 -6.481348970579422 Z" fill="#173054" transform="matrix(1,0,0,1,0,0)" fill-rule="evenodd"></path></g><g clip-path="url(#SvgjsClipPath69591bf799424-4096-4452-953e-8729a46e071f)"><path d=" M 4.438881864985083 -0.017470763472468676 C 4.297754846896515 -0.0025211915816427677 4.155937952227623 0.004979467381437175 4.014021341104387 0.005000000000000782 C 3.9037515058382524 0.005000000000000782 3.7951126130822668 0.00010717246970415317 3.6871985836640637 -0.008591187584153559 C 3.734858448556011 -0.20520117574546237 3.7677801282084737 -0.40509361889741946 3.785689389690563 -0.6066034412869845 C 3.911453178802619 -2.413234702890122 3.0029275927604666 -5.057173727594443 2.415244641621586 -6.825115408541352 C 2.4996006125605867 -7.056256205389216 2.5814195618172104 -7.2680069079503555 2.655083798523319 -7.453300098681004 C 2.6985755987926026 -7.56347932602989 2.7547525074737726 -7.695313845596195 2.8170001466092063 -7.841645631918933 C 3.2045504490458336 -7.962222774187189 3.6081471348993106 -8.02332287044841 4.014021341104364 -8.022861466374339 C 4.477260722222807 -8.023349498513884 4.937088597844006 -7.94364600007288 5.373140099519878 -7.787280881582311 C 5.499991183638676 -6.326409432120087 5.2029784309662865 -5.191182837174217 4.74006258184993 -3.6811112886573456 C 4.3344109364215555 -2.3589605604707238 4.159809479923759 -1.2737495358345514 4.438881864985083 -0.017470763472468676 Z" fill="#225777" transform="matrix(1,0,0,1,0,0)" fill-rule="evenodd"></path></g><g clip-path="url(#SvgjsClipPath69591bf799424-4096-4452-953e-8729a46e071f)"><path d=" M 5.5662255711321444 -4.920083948828932 C 5.601834482602616 -5.0931450707338435 5.633637861549544 -5.265481329300931 5.658555038787169 -5.435099350351187 C 5.759750726756578 -6.1735023827516375 5.766966227983749 -6.921752904522878 5.680029115170142 -7.661970132056404 C 6.110523220029601 -7.465320795155088 6.502830771471038 -7.194058329176789 6.838813768595194 -6.860724320011843 C 6.816796044708883 -6.796302090862944 6.793509809981361 -6.734960530899791 6.767686553571462 -6.675249913446737 C 6.465599757534296 -5.979290501220765 6.199846736305451 -5.711453497895678 5.726329760873482 -5.130566140548886 C 5.670787107612907 -5.062791418462561 5.61705661269688 -4.992570282611095 5.5662255711321444 -4.920083948828932 Z" fill="#a7db25" transform="matrix(1,0,0,1,0,0)" fill-rule="evenodd"></path></g><g clip-path="url(#SvgjsClipPath69591bf799424-4096-4452-953e-8729a46e071f)"><path d=" M 6.327603899596502 -0.7290147374616112 C 5.890646537655293 -0.4200286907893833 5.396085918723498 -0.2019425864470099 4.873256220174695 -0.08769189932394905 C 4.799384920705086 -0.514088120198819 4.774185411513138 -0.9474953603180056 4.798142256792929 -1.379579583156497 C 4.840184330386578 -2.0112073741508105 5.000560343879597 -2.678534684532835 5.176339703301347 -3.3514796857829676 C 5.20861660193604 -3.420639299577929 5.232320174984737 -3.4934844265080516 5.246923270821719 -3.5683950396260853 C 5.418444058133778 -4.164957566653269 5.567403474056099 -4.439771379604888 6.003861811341939 -4.8799446414970635 C 6.4812749272147085 -5.361797545313976 6.9280625670645035 -5.80586694764694 7.2323239531151104 -6.408047165542245 C 7.433545600359174 -6.138853991911135 7.6000075383525125 -5.845353709505504 7.7277680445161785 -5.534496235549981 C 6.986051634090245 -4.50935826003576 6.148653263071802 -3.23831039716557 6.0618508783676806 -2.218246465016107 C 6.0321314815169815 -1.8742082033025254 6.1647814723383405 -1.269037924138706 6.327603899596502 -0.7290147374616112 Z" fill="#3a868f" transform="matrix(1,0,0,1,0,0)" fill-rule="evenodd"></path></g><g clip-path="url(#SvgjsClipPath69591bf799424-4096-4452-953e-8729a46e071f)"><path d=" M 8.027952074291562 -4.009383772773309 C 8.02929687406347 -2.8886109713325707 7.560645120059964 -1.8186230442980733 6.735973782541814 -1.0596430274255235 C 6.6851427409770325 -1.306912033539886 6.645365865314059 -1.55853021968122 6.613471878449896 -1.8147694096011548 C 6.479372160952902 -2.890104171259514 7.227521733502036 -4.091293329947149 7.857518581986246 -5.169799368708481 C 7.970955756098217 -4.793451196558767 8.028382321010811 -4.402455972297399 8.02795207429154 -4.009383772773309 Z" fill="#173054" transform="matrix(1,0,0,1,0,0)" fill-rule="evenodd"></path></g></g><g><path d=" M 0.24956982421874999 1.08522216796875 Q 0.2164189453125 1.10398681640625 0.18608276367187498 1.11649658203125 Q 0.15574658203125 1.12900634765625 0.12947607421875 1.13651220703125 Q 0.10320556640624999 1.14401806640625 0.08225170898437499 1.1471455078125 Q 0.0612978515625 1.15027294921875 0.0462861328125 1.15027294921875 L -0.047537109375 1.15027294921875 L 0.020641113281249998 1.1121181640625 Q 0.0312744140625 1.098357421875 0.041282226562499996 1.0845966796875 Q 0.051290039062499994 1.0708359375 0.05817041015625 1.05895166015625 Q 0.0663017578125 1.04581640625 0.07318212890624999 1.03268115234375 Q 0.092572265625 0.993275390625 0.13072705078125 0.90508154296875 Q 0.14636425781249998 0.86755224609375 0.16794360351562498 0.81563671875 Q 0.18952294921875 0.76372119140625 0.21766992187499998 0.69491748046875 Q 0.24581689453125 0.6261137695312501 0.28021874999999996 0.53854541015625 Q 0.31462060546875 0.45097705078125006 0.35715380859374996 0.34214208984375005 L 0.46598876953124996 0.24206396484375003 L 0.7111801757812499 1.073337890625 Q 0.73745068359375 1.0802182617187501 0.7615319824218749 1.0820947265625 Q 0.78561328125 1.08397119140625 0.8068798828124999 1.08397119140625 Q 0.818138671875 1.08397119140625 0.82752099609375 1.083658447265625 Q 0.8369033203124999 1.083345703125 0.84378369140625 1.08272021484375 Q 0.8512895507812499 1.0820947265625 0.858169921875 1.08084375 Q 0.8218916015625 1.098357421875 0.7949956054687499 1.111179931640625 Q 0.768099609375 1.12400244140625 0.7471457519531249 1.13275927734375 Q 0.72619189453125 1.14151611328125 0.7083654785156249 1.14589453125 Q 0.6905390625 1.15027294921875 0.6723999023437499 1.15027294921875 L 0.57232177734375 1.15027294921875 L 0.6048471679687499 1.1296318359375 L 0.5047690429687499 0.798123046875 Q 0.48662988281249997 0.803126953125 0.46286132812499997 0.8078181152343751 Q 0.4390927734375 0.81250927734375 0.40625463867187495 0.81626220703125 Q 0.37341650390625 0.82001513671875 0.329945068359375 0.823142578125 Q 0.2864736328125 0.82627001953125 0.22955419921874998 0.82877197265625 Q 0.20328369140625 0.8844404296875 0.18139160156249998 0.92759912109375 Q 0.15949951171875 0.9707578125 0.14198583984375 1.00265771484375 Q 0.12447216796874999 1.0345576171875 0.111024169921875 1.05644970703125 Q 0.09757617187499999 1.078341796875 0.08819384765624999 1.0914770507812501 Q 0.0988271484375 1.093353515625 0.11196240234374999 1.094291748046875 Q 0.12509765625 1.09522998046875 0.13823291015625 1.09522998046875 Q 0.15824853515624998 1.09522998046875 0.17795141601562497 1.093666259765625 Q 0.197654296875 1.0921025390625 0.2139169921875 1.09022607421875 Q 0.232681640625 1.08772412109375 0.24956982421874999 1.08522216796875 M 0.33713818359375 0.7543388671875 Q 0.42157910156249995 0.7543388671875 0.4903828125 0.7505859375 L 0.39468310546874996 0.432837890625 Q 0.35590283203124995 0.53229052734375 0.32369018554687495 0.6104765625 Q 0.29147753906249996 0.68866259765625 0.262705078125 0.7543388671875 L 0.33713818359375 0.7543388671875 M 1.04393994140625 0.803126953125 Q 1.0408125 0.83877978515625 1.038310546875 0.883189453125 Q 1.03580859375 0.92134423828125 1.03268115234375 0.973572509765625 Q 1.0295537109375 1.02580078125 1.02580078125 1.08897509765625 L 0.92071875 1.178419921875 Q 0.9344794921874999 1.0508203125 0.944800048828125 0.93510498046875 Q 0.95512060546875 0.8193896484375001 0.95512060546875 0.7068017578125001 Q 0.95512060546875 0.64988232421875 0.9394833984375 0.622673583984375 Q 0.92384619140625 0.5954648437500001 0.89757568359375 0.5954648437500001 Q 0.8700541992187499 0.5954648437500001 0.8337758789062499 0.6236118164062501 Q 0.8419072265624999 0.61610595703125 0.8534787597656249 0.6045344238281251 Q 0.86505029296875 0.5929628906250001 0.8784982910156249 0.57982763671875 Q 0.8919462890625 0.5666923828125 0.9066452636718749 0.5535571289062501 Q 0.92134423828125 0.540421875 0.935417724609375 0.52978857421875 Q 0.9494912109375 0.5191552734375 0.9626264648437499 0.512587646484375 Q 0.97576171875 0.5060200195312501 0.98576953125 0.5060200195312501 Q 1.01016357421875 0.5060200195312501 1.023298828125 0.5197807617187501 Q 1.0364340820312499 0.53354150390625 1.0426889648437498 0.5535571289062501 Q 1.04894384765625 0.5735727539062501 1.05019482421875 0.5954648437500001 Q 1.05144580078125 0.61735693359375 1.05144580078125 0.632994140625 L 1.05144580078125 0.6623920898437501 Q 1.0845966796875 0.60734912109375 1.129944580078125 0.5654414062500001 Q 1.17529248046875 0.5235336914062501 1.23596484375 0.5060200195312501 Q 1.24910009765625 0.50226708984375 1.26160986328125 0.5038308105468751 Q 1.27411962890625 0.50539453125 1.28662939453125 0.5088347167968751 Q 1.2991391601562499 0.5122749023437501 1.313212646484375 0.51602783203125 Q 1.3272861328125 0.5197807617187501 1.3435488281249999 0.5197807617187501 Q 1.3560585937499998 0.5197807617187501 1.3698193359375 0.5166533203125 Q 1.383580078125 0.51352587890625 1.4010937499999998 0.5060200195312501 Q 1.38295458984375 0.5241591796875 1.36544091796875 0.5416728515625 Q 1.34792724609375 0.5591865234375001 1.330726318359375 0.5732600097656251 Q 1.313525390625 0.5873334960937501 1.296949951171875 0.597028564453125 Q 1.28037451171875 0.6067236328125001 1.2653627929687499 0.60860009765625 Q 1.24910009765625 0.6104765625 1.234401123046875 0.6064108886718751 Q 1.2197021484375 0.60234521484375 1.2043776855468749 0.597654052734375 Q 1.18905322265625 0.5929628906250001 1.1721650390625 0.590773681640625 Q 1.15527685546875 0.58858447265625 1.13588671875 0.5942138671875 Q 1.12275146484375 0.5985922851562501 1.109928955078125 0.6182951660156251 Q 1.0971064453125 0.6379980468750001 1.084909423828125 0.667083251953125 Q 1.07271240234375 0.6961684570312501 1.062391845703125 0.731508544921875 Q 1.0520712890625 0.7668486328125 1.04393994140625 0.8018759765625001 L 1.04393994140625 0.803126953125 M 1.7326025390625 0.94261083984375 L 1.71946728515625 1.0070361328125 Q 1.7050810546875 1.01892041015625 1.686003662109375 1.036746826171875 Q 1.66692626953125 1.0545732421875 1.644721435546875 1.07396337890625 Q 1.6225166015624999 1.093353515625 1.598748046875 1.111805419921875 Q 1.5749794921875 1.13025732421875 1.5512109375 1.143079833984375 Q 1.5274423828125 1.15590234375 1.504612060546875 1.161218994140625 Q 1.48178173828125 1.16653564453125 1.4623916015625 1.15902978515625 Q 1.4498818359375 1.1546513671875 1.440812255859375 1.14589453125 Q 1.43174267578125 1.1371376953125 1.425800537109375 1.120875 Q 1.4198583984375 1.1046123046875 1.41673095703125 1.079280029296875 Q 1.413603515625 1.05394775390625 1.413603515625 1.0170439453125 Q 1.413603515625 0.90570703125 1.418294677734375 0.800937744140625 Q 1.42298583984375 0.6961684570312501 1.4298662109375 0.5929628906250001 Q 1.403595703125 0.59483935546875 1.378263427734375 0.599530517578125 Q 1.35293115234375 0.6042216796875001 1.33917041015625 0.6148549804687501 Q 1.378576171875 0.57982763671875 1.40109375 0.550116943359375 Q 1.423611328125 0.5204062500000001 1.43549560546875 0.4972631835937501 L 1.44300146484375 0.3827988281250001 L 1.55058544921875 0.2933540039062501 L 1.5374501953125 0.5172788085937501 Q 1.5512109375 0.51852978515625 1.56309521484375 0.51852978515625 Q 1.5749794921875 0.51852978515625 1.58623828125 0.51852978515625 Q 1.64065576171875 0.51852978515625 1.687254638671875 0.5088347167968751 Q 1.733853515625 0.4991396484375 1.77701220703125 0.482876953125 Q 1.73698095703125 0.5147768554687501 1.7003898925781251 0.53479248046875 Q 1.663798828125 0.55480810546875 1.6325244140625 0.567005126953125 Q 1.60125 0.5792021484375001 1.57560498046875 0.5845187988281251 Q 1.5499599609375 0.5898354492187501 1.5324462890625 0.5917119140625 Q 1.52619140625 0.7042998046875 1.522751220703125 0.7740417480468751 Q 1.51931103515625 0.84378369140625 1.5174345703125 0.8819384765625 Q 1.5149326171875 0.9269736328125 1.5149326171875 0.9476147460937501 Q 1.51305615234375 0.978263671875 1.518685546875 1.0020322265625001 Q 1.52431494140625 1.02580078125 1.535886474609375 1.0414379882812501 Q 1.5474580078125 1.0570751953125 1.564033447265625 1.063330078125 Q 1.58060888671875 1.0695849609375 1.6006245117187499 1.0645810546875 Q 1.61626171875 1.0595771484375 1.63690283203125 1.0445654296875 Q 1.65441650390625 1.0320556640625 1.678497802734375 1.0079743652343751 Q 1.7025791015625 0.98389306640625 1.7326025390625 0.94261083984375 M 1.33917041015625 0.6148549804687501 L 1.33541748046875 0.61735693359375 L 1.33917041015625 0.6148549804687501 M 1.94714501953125 0.06254882812500018 Q 1.94839599609375 0.07443310546875015 1.94839599609375 0.09382324218750004 Q 1.94839599609375 0.11321337890625016 1.94839599609375 0.13948388671875 Q 1.94839599609375 0.28459716796875 1.941828369140625 0.42314282226562505 Q 1.9352607421875 0.5616884765625001 1.9252529296875 0.6992958984375001 Q 1.94839599609375 0.6630175781250001 1.976855712890625 0.62548828125 Q 2.0053154296875 0.587958984375 2.0372153320312503 0.557622802734375 Q 2.069115234375 0.52728662109375 2.10351708984375 0.508209228515625 Q 2.1379189453125003 0.4891318359375001 2.17357177734375 0.4891318359375001 Q 2.2029697265625 0.4891318359375001 2.22235986328125 0.5041435546875 Q 2.24175 0.5191552734375 2.2530087890625 0.5416728515625 Q 2.264267578125 0.5641904296875 2.268958740234375 0.5904609375000001 Q 2.2736499023437498 0.6167314453125 2.2736499023437498 0.6392490234375 Q 2.2736499023437498 0.6867861328125 2.26989697265625 0.733385009765625 Q 2.26614404296875 0.7799838867187501 2.262078369140625 0.82564453125 Q 2.2580126953125 0.87130517578125 2.254259765625 0.916653076171875 Q 2.2505068359375002 0.9620009765625 2.2505068359375002 1.0070361328125 Q 2.2505068359375002 1.0195458984375 2.2517578125 1.0320556640625 Q 2.2530087890625 1.0445654296875 2.25738720703125 1.054885986328125 Q 2.261765625 1.06520654296875 2.269584228515625 1.071774169921875 Q 2.27740283203125 1.078341796875 2.2905380859375 1.078341796875 Q 2.3080517578125 1.078341796875 2.326503662109375 1.0636428222656251 Q 2.34495556640625 1.04894384765625 2.360905517578125 1.029240966796875 Q 2.37685546875 1.0095380859375 2.389677978515625 0.9898352050781251 Q 2.40250048828125 0.9701323242187501 2.409380859375 0.9594990234375 L 2.3956201171875 1.0170439453125 Q 2.3680986328125 1.04393994140625 2.350272216796875 1.060515380859375 Q 2.33244580078125 1.0770908203125 2.3218125 1.0870986328125 Q 2.309302734375 1.098357421875 2.301796875 1.10398681640625 Q 2.2942910156250003 1.11024169921875 2.2830322265625 1.120875 Q 2.2717734375000003 1.13150830078125 2.258325439453125 1.14151611328125 Q 2.24487744140625 1.15152392578125 2.230178466796875 1.1587170410156251 Q 2.2154794921875 1.16591015625 2.2004677734375 1.16591015625 Q 2.1879580078125 1.16591015625 2.17982666015625 1.1621572265625 Q 2.1716953125 1.158404296875 2.16669140625 1.14902197265625 Q 2.1616875 1.1396396484375 2.159498291015625 1.124315185546875 Q 2.15730908203125 1.10899072265625 2.15730908203125 1.08522216796875 Q 2.15730908203125 1.02642626953125 2.160749267578125 0.970445068359375 Q 2.164189453125 0.9144638671875001 2.1679423828125 0.86004638671875 Q 2.1716953125 0.80562890625 2.174197265625 0.7524624023437501 Q 2.17669921875 0.6992958984375001 2.17482275390625 0.6467548828125 Q 2.17357177734375 0.6317431640625001 2.16731689453125 0.6182951660156251 Q 2.16106201171875 0.60484716796875 2.150115966796875 0.59483935546875 Q 2.139169921875 0.5848315429687501 2.124158203125 0.579514892578125 Q 2.109146484375 0.5741982421875 2.0916328125 0.5760747070312501 Q 2.074119140625 0.577951171875 2.057543701171875 0.58608251953125 Q 2.04096826171875 0.5942138671875 2.025018310546875 0.6104765625 Q 2.009068359375 0.6267392578125001 1.993118408203125 0.65238427734375 Q 1.97716845703125 0.678029296875 1.96090576171875 0.7161840820312501 Q 1.954025390625 0.733072265625 1.94651953125 0.75371337890625 Q 1.9396391601562502 0.7718525390625 1.9315078125 0.7959338378906251 Q 1.92337646484375 0.82001513671875 1.9152451171875 0.8494130859375 L 1.89960791015625 1.10148486328125 L 1.79952978515625 1.1796708984375 Q 1.80953759765625 1.05895166015625 1.819232666015625 0.943549072265625 Q 1.8289277343750001 0.828146484375 1.83643359375 0.716496826171875 Q 1.843939453125 0.60484716796875 1.848630615234375 0.49569946289062505 Q 1.85332177734375 0.38655175781250006 1.85332177734375 0.27771679687500006 Q 1.85332177734375 0.23893652343750005 1.851758056640625 0.20641113281250012 Q 1.8501943359375 0.17388574218750008 1.847379638671875 0.14917895507812506 Q 1.84456494140625 0.12447216796875016 1.8401865234375 0.10820947265625014 Q 1.83580810546875 0.09194677734375012 1.82955322265625 0.08569189453125015 Q 1.8201708984375 0.07943701171875017 1.8076611328125 0.07943701171875017 Q 1.79702783203125 0.07943701171875017 1.781077880859375 0.08537915039062516 Q 1.7651279296875 0.09132128906250014 1.74323583984375 0.11008593750000006 Q 1.7563710937500001 0.09882714843750007 1.77576123046875 0.08006250000000015 Q 1.7951513671875001 0.061297851562500005 1.81641796875 0.04347143554687505 Q 1.8376845703125 0.02564501953125009 1.858951171875 0.012822509765625156 Q 1.8802177734375 0 1.89710595703125 0 Q 1.9152451171875 0 1.92963134765625 0.014386230468750094 Q 1.944017578125 0.02877246093750019 1.94714501953125 0.06254882812500018 M 3.0286142578125004 0.98764599609375 Q 3.02298486328125 0.99640283203125 3.01297705078125 1.008599853515625 Q 3.00296923828125 1.020796875 2.9929614257812505 1.03268115234375 Q 2.98170263671875 1.04644189453125 2.9685673828125 1.060828125 Q 2.9523046875000003 1.08084375 2.9335400390625 1.0996083984375 Q 2.9147753906250005 1.118373046875 2.896323486328125 1.133072021484375 Q 2.87787158203125 1.14777099609375 2.8603579101562504 1.15652783203125 Q 2.84284423828125 1.16528466796875 2.8290834960937503 1.1646591796875 Q 2.80281298828125 1.163408203125 2.7928051757812504 1.132446533203125 Q 2.7827973632812504 1.10148486328125 2.7827973632812504 1.04268896484375 Q 2.7827973632812504 1.01141455078125 2.7846738281250003 0.9751362304687501 Q 2.7865502929687502 0.93885791015625 2.79030322265625 0.89382275390625 Q 2.77654248046875 0.91571484375 2.7640327148437502 0.93385400390625 Q 2.7515229492187503 0.9519931640625 2.7415151367187502 0.96575390625 Q 2.7302563476562502 0.9820166015625 2.7189975585937503 0.99515185546875 Q 2.6858466796875002 1.0358085937500001 2.6548850097656254 1.0670830078125 Q 2.62392333984375 1.098357421875 2.5979655761718754 1.1196240234375001 Q 2.5720078125000003 1.140890625 2.5523049316406254 1.1521494140625 Q 2.53260205078125 1.163408203125 2.52134326171875 1.1646591796875 Q 2.51008447265625 1.16591015625 2.494134521484375 1.1571533203125 Q 2.4781845703125 1.148396484375 2.46379833984375 1.123376953125 Q 2.4494121093750003 1.098357421875 2.439091552734375 1.053322265625 Q 2.4287709960937502 1.008287109375 2.429396484375 0.9363559570312501 Q 2.43002197265625 0.8644248046875 2.4447209472656253 0.809694580078125 Q 2.4594199218750004 0.75496435546875 2.482875732421875 0.713994873046875 Q 2.5063315429687503 0.6730253906250001 2.53510400390625 0.6433146972656251 Q 2.56387646484375 0.61360400390625 2.5920234375000004 0.5917119140625 Q 2.6501938476562503 0.54730224609375 2.703673095703125 0.5207189941406251 Q 2.75715234375 0.4941357421875 2.8084423828125002 0.49288476562500005 Q 2.82533056640625 0.4922592773437501 2.8415932617187503 0.49351025390625003 Q 2.8559794921875 0.4947612304687501 2.872554931640625 0.4975759277343751 Q 2.88913037109375 0.5003906250000001 2.9041420898437504 0.5060200195312501 L 2.92228125 0.4916337890625001 Q 2.9185283203125003 0.5091474609375001 2.9144626464843753 0.5391708984375001 Q 2.91039697265625 0.5691943359375 2.9066440429687503 0.6067236328125001 Q 2.90289111328125 0.6442529296875 2.89913818359375 0.6867861328125 Q 2.8953852539062503 0.7293193359375001 2.8925705566406252 0.772165283203125 Q 2.889755859375 0.81501123046875 2.8872539062500002 0.855355224609375 Q 2.8847519531250003 0.89569921875 2.883188232421875 0.92885009765625 Q 2.8816245117187504 0.9620009765625 2.8813117675781252 0.98514404296875 Q 2.8809990234375 1.008287109375 2.8816245117187504 1.0170439453125 Q 2.8847519531250003 1.0526967773437501 2.8981999511718755 1.06583203125 Q 2.91164794921875 1.07896728515625 2.93541650390625 1.063330078125 Q 2.944798828125 1.05582421875 2.9585595703125 1.0395615234375 Q 2.9704438476562505 1.02580078125 2.987644775390625 1.001719482421875 Q 3.0048457031250004 0.97763818359375 3.0286142578125004 0.93885791015625 L 3.0286142578125004 0.98764599609375 M 2.814697265625 0.5892099609375 Q 2.75527587890625 0.5817041015625001 2.7171210937500003 0.5817041015625001 Q 2.67646435546875 0.5817041015625001 2.64644091796875 0.59483935546875 Q 2.6164174804687503 0.607974609375 2.5951508789062503 0.630179443359375 Q 2.5738842773437502 0.65238427734375 2.5601235351562504 0.681469482421875 Q 2.5463627929687505 0.7105546875000001 2.538544189453125 0.743080078125 Q 2.5307255859375 0.77560546875 2.527910888671875 0.8093818359375 Q 2.5250961914062504 0.843158203125 2.5250961914062504 0.87380712890625 Q 2.5250961914062504 0.8844404296875 2.5263471679687504 0.9025795898437501 Q 2.5275981445312503 0.92071875 2.5310383300781254 0.94135986328125 Q 2.534478515625 0.9620009765625 2.539795166015625 0.983267578125 Q 2.54511181640625 1.0045341796875 2.5535559082031254 1.021735107421875 Q 2.5620000000000003 1.03893603515625 2.5732587890625003 1.049882080078125 Q 2.5845175781250003 1.060828125 2.599529296875 1.060828125 Q 2.6157919921875004 1.060828125 2.639247802734375 1.043001708984375 Q 2.6627036132812503 1.02517529296875 2.6958544921875003 0.98264208984375 Q 2.7152446289062504 0.9563715820312501 2.734634765625 0.9194677734375001 Q 2.7508974609375003 0.888193359375 2.7693493652343752 0.84253271484375 Q 2.78780126953125 0.7968720703125001 2.8021875 0.73619970703125 L 2.814697265625 0.5892099609375 M 3.9286918945312506 0.648005859375 Q 3.9286918945312506 0.72556640625 3.9027341308593755 0.792806396484375 Q 3.8767763671875004 0.86004638671875 3.8326794433593756 0.916027587890625 Q 3.7885825195312504 0.9720087890625 3.7297866210937505 1.015480224609375 Q 3.67099072265625 1.05895166015625 3.6050017089843753 1.08897509765625 Q 3.5390126953125005 1.11899853515625 3.4698962402343754 1.1346357421875 Q 3.4007797851562502 1.15027294921875 3.3357290039062506 1.15027294921875 Q 3.3294741210937504 1.1508984375 3.3128986816406254 1.1508984375 Q 3.2963232421875004 1.1508984375 3.2744311523437504 1.151211181640625 Q 3.2525390625000004 1.15152392578125 3.2268940429687505 1.15152392578125 Q 3.2012490234375006 1.15152392578125 3.1768549804687503 1.15152392578125 Q 3.1524609375000003 1.15152392578125 3.1311943359375003 1.151211181640625 Q 3.1099277343750003 1.1508984375 3.0961669921875004 1.15027294921875 Q 3.1068002929687504 1.15027294921875 3.1149316406250005 1.1446435546875 Q 3.1230629882812506 1.13901416015625 3.1290051269531256 1.1296318359375 Q 3.1349472656250006 1.12024951171875 3.1390129394531257 1.108052490234375 Q 3.1430786132812503 1.09585546875 3.1462060546875006 1.083345703125 Q 3.1524609375000003 1.053322265625 3.1537119140625003 1.01579296875 Q 3.1537119140625003 0.9695068359375 3.1549628906250002 0.878185546875 Q 3.15558837890625 0.8394052734375 3.1562138671875006 0.786551513671875 Q 3.1568393554687506 0.73369775390625 3.1580903320312506 0.665206787109375 Q 3.1593413085937505 0.5967158203125 3.1609050292968757 0.51102392578125 Q 3.1624687500000004 0.4253320312500001 3.1643452148437503 0.32025000000000003 Q 3.1368237304687505 0.32337744140625 3.1096149902343755 0.32494116210937507 Q 3.0824062500000005 0.3265048828125 3.0523828125000003 0.32525390625000006 L 3.1693491210937506 0.24831884765625012 Q 3.1981215820312503 0.2520717773437501 3.2287705078125004 0.25332275390625003 Q 3.2594194335937505 0.2545737304687501 3.28944287109375 0.2545737304687501 Q 3.3444858398437503 0.2545737304687501 3.3910847167968754 0.25019531250000004 Q 3.4376835937500005 0.2458168945312501 3.4833442382812505 0.2458168945312501 Q 3.5246264648437506 0.2458168945312501 3.5737272949218752 0.25238452148437507 Q 3.6228281250000003 0.25895214843750003 3.6722416992187505 0.276153076171875 Q 3.7216552734375004 0.2933540039062501 3.7679414062500003 0.32212646484375007 Q 3.8142275390625002 0.35089892578125004 3.84988037109375 0.39562133789062504 Q 3.8855332031250005 0.44034375000000003 3.9071125488281253 0.502579833984375 Q 3.9286918945312506 0.5648159179687501 3.9286918945312506 0.648005859375 M 3.2587939453125006 0.97763818359375 Q 3.2569174804687506 0.9970283203125 3.2506625976562504 1.01516748046875 Q 3.2456586914062506 1.0308046875 3.2359636230468753 1.048318359375 Q 3.2262685546875005 1.06583203125 3.2100058593750003 1.078341796875 Q 3.2969487304687504 1.08272021484375 3.3532426757812503 1.08397119140625 Q 3.4095366210937503 1.08522216796875 3.4433129882812503 1.08522216796875 Q 3.5296303710937504 1.08522216796875 3.5984340820312504 1.054260498046875 Q 3.6672377929687503 1.023298828125 3.7150876464843754 0.970445068359375 Q 3.7629375000000005 0.91759130859375 3.788269775390625 0.84753662109375 Q 3.8136020507812503 0.77748193359375 3.8136020507812503 0.6992958984375001 Q 3.8136020507812503 0.62236083984375 3.7932736816406254 0.5626267089843751 Q 3.7729453125000005 0.5028925781250001 3.7391689453125005 0.4581701660156251 Q 3.7053925781250006 0.4134477539062501 3.6622338867187505 0.3827988281250001 Q 3.6190751953125004 0.3521499023437501 3.5737272949218752 0.3330725097656251 Q 3.5283793945312505 0.31399511718750006 3.4839697265625005 0.30555102539062506 Q 3.4395600585937505 0.29710693359375007 3.4039072265625006 0.29710693359375007 Q 3.3670034179687502 0.29710693359375007 3.3351035156250006 0.2996088867187501 Q 3.3032036132812506 0.3021108398437501 3.2731801757812504 0.30586376953125005 Q 3.2713037109375005 0.4197026367187501 3.2697399902343753 0.5088347167968751 Q 3.2681762695312506 0.5979667968750001 3.2669252929687502 0.666457763671875 Q 3.2656743164062503 0.7349487304687501 3.2644233398437503 0.7846750488281251 Q 3.2631723632812504 0.8344013671875 3.2625468750000004 0.8688032226562501 Q 3.2600449218750005 0.9494912109375 3.2587939453125006 0.97763818359375 M 4.5698173828125 0.5122749023437501 Q 4.56043505859375 0.6042216796875001 4.5523037109375 0.692102783203125 Q 4.54417236328125 0.7799838867187501 4.538230224609375 0.865988525390625 Q 4.5322880859375 0.9519931640625 4.528847900390625 1.0370595703125 Q 4.52540771484375 1.1221259765625 4.52540771484375 1.20781787109375 Q 4.52540771484375 1.25535498046875 4.52353125 1.2922587890625 Q 4.52165478515625 1.32916259765625 4.5147744140625 1.3485527343750001 Q 4.503515625 1.383580078125 4.47787060546875 1.417669189453125 Q 4.4522255859375 1.45175830078125 4.417510986328125 1.4824072265625 Q 4.38279638671875 1.51305615234375 4.341826904296875 1.5390139160156249 Q 4.3008574218749995 1.5649716796875 4.25832421875 1.5834235839843749 Q 4.215791015625 1.60187548828125 4.1745087890625 1.6118833007812499 Q 4.1332265625 1.62189111328125 4.09882470703125 1.62064013671875 Q 4.0694267578125 1.6200146484375 4.0444072265625 1.611570556640625 Q 4.0193876953125 1.60312646484375 4.004063232421875 1.5899912109374998 Q 3.98873876953125 1.57685595703125 3.98498583984375 1.560906005859375 Q 3.98123291015625 1.5449560546874999 3.99499365234375 1.53056982421875 Q 4.005626953125 1.5199365234375 4.0218896484375 1.50680126953125 Q 4.035650390625 1.49616796875 4.055666015625 1.48115625 Q 4.075681640625 1.4661445312499999 4.10382861328125 1.4498818359375 Q 4.0919443359375 1.4623916015625 4.090693359375 1.47302490234375 Q 4.0894423828125 1.483658203125 4.09256982421875 1.4911640625 Q 4.095697265625 1.4999208984374999 4.10382861328125 1.5074267578125 Q 4.1194658203125 1.51931103515625 4.151678466796875 1.529631591796875 Q 4.18389111328125 1.5399521484375 4.2226713867187495 1.5399521484375 Q 4.270833984375 1.5399521484375 4.3067995605468745 1.524627685546875 Q 4.34276513671875 1.50930322265625 4.36778466796875 1.4824072265625 Q 4.39280419921875 1.4555112304687499 4.406252197265625 1.418607421875 Q 4.4197001953125 1.38170361328125 4.42282763671875 1.338544921875 Q 4.42658056640625 1.29163330078125 4.4272060546875 1.2372158203125 Q 4.42783154296875 1.18279833984375 4.42783154296875 1.1246279296875 Q 4.42783154296875 1.0820947265625 4.42783154296875 1.0414379882812501 Q 4.42783154296875 1.00078125 4.42908251953125 0.9620009765625 Q 4.41844921875 0.9757617187500001 4.40906689453125 0.9867077636718751 Q 4.3996845703125 0.9976538085937501 4.3921787109375 1.00578515625 Q 4.383421875 1.01516748046875 4.37529052734375 1.023298828125 Q 4.2971044921875 1.0971064453125 4.24018505859375 1.13275927734375 Q 4.183265625 1.168412109375 4.140732421875 1.16153173828125 Q 4.105705078125 1.1546513671875 4.09006787109375 1.11649658203125 Q 4.0744306640625 1.078341796875 4.0744306640625 1.018294921875 Q 4.0744306640625 0.9907734375 4.075994384765625 0.956684326171875 Q 4.07755810546875 0.92259521484375 4.08006005859375 0.8863168945312501 Q 4.08256201171875 0.85003857421875 4.085376708984375 0.8137602539062501 Q 4.08819140625 0.77748193359375 4.091006103515625 0.74495654296875 Q 4.09382080078125 0.7124311523437501 4.096010009765625 0.68616064453125 Q 4.09819921875 0.65989013671875 4.09882470703125 0.6430019531250001 Q 4.10007568359375 0.6167314453125 4.090380615234375 0.602970703125 Q 4.080685546875 0.5892099609375 4.06254638671875 0.5892099609375 Q 4.0394033203125 0.5892099609375 3.99874658203125 0.6148549804687501 Q 4.01375830078125 0.6010942382812501 4.03252294921875 0.5842060546875001 Q 4.05128759765625 0.5673178710937501 4.071615966796875 0.55230615234375 Q 4.0919443359375 0.5372944335937501 4.1132109375 0.52728662109375 Q 4.1344775390625 0.5172788085937501 4.1551186523437496 0.5172788085937501 Q 4.17513427734375 0.5172788085937501 4.187331298828125 0.5338542480468751 Q 4.1995283203125 0.5504296875000001 4.1995283203125 0.587958984375 Q 4.1995283203125 0.60734912109375 4.19827734375 0.6379980468750001 Q 4.1970263671875 0.6686469726562501 4.194837158203125 0.704612548828125 Q 4.19264794921875 0.7405781250000001 4.189833251953125 0.7790456542968751 Q 4.1870185546875 0.81751318359375 4.184829345703125 0.85379150390625 Q 4.18264013671875 0.89006982421875 4.180763671875 0.921031494140625 Q 4.17888720703125 0.9519931640625 4.17826171875 0.9720087890625 Q 4.1776362304687495 0.99515185546875 4.182327392578125 1.014854736328125 Q 4.1870185546875 1.0345576171875 4.196088134765625 1.04894384765625 Q 4.20515771484375 1.063330078125 4.217980224609375 1.07146142578125 Q 4.230802734375 1.0795927734375 4.245814453125 1.0795927734375 Q 4.26520458984375 1.0795927734375 4.285845703125 1.0670830078125 Q 4.3046103515625 1.0545732421875 4.32400048828125 1.036121337890625 Q 4.343390625 1.01766943359375 4.362468017578125 0.991711669921875 Q 4.38154541015625 0.96575390625 4.3996845703125 0.931664794921875 Q 4.41782373046875 0.8975756835937501 4.43408642578125 0.8544169921875 Q 4.43783935546875 0.78248583984375 4.4447197265625 0.7168095703125 Q 4.45160009765625 0.6511333007812501 4.460982421875 0.58545703125 L 4.5698173828125 0.5122749023437501 M 4.8587929687499996 0.5341669921875001 Q 4.86317138671875 0.5454257812500001 4.86442236328125 0.5673178710937501 Q 4.86567333984375 0.5892099609375 4.86567333984375 0.61735693359375 Q 4.86567333984375 0.6373725585937501 4.865047851562499 0.65989013671875 Q 4.86442236328125 0.68240771484375 4.86317138671875 0.70555078125 Q 4.8813105468749995 0.6792802734375001 4.9025771484375 0.6514460449218751 Q 4.92384375 0.6236118164062501 4.947299560546875 0.5982795410156251 Q 4.97075537109375 0.5729472656250001 4.996400390624999 0.5516806640625 Q 5.02204541015625 0.5304140625 5.049254150390625 0.5169660644531251 Q 5.076462890625 0.5035180664062501 5.104922607421875 0.499452392578125 Q 5.13338232421875 0.49538671875000007 5.1627802734375 0.50476904296875 Q 5.179042968749999 0.50977294921875 5.1893635253906245 0.5197807617187501 Q 5.19968408203125 0.52978857421875 5.2059389648437495 0.544487548828125 Q 5.212193847656249 0.5591865234375001 5.214383056640624 0.577951171875 Q 5.2165722656249995 0.5967158203125 5.2165722656249995 0.61860791015625 Q 5.2165722656249995 0.6673959960937501 5.2128193359375 0.71493310546875 Q 5.20906640625 0.7624702148437501 5.204375244140625 0.809069091796875 Q 5.19968408203125 0.85566796875 5.19593115234375 0.9019541015625 Q 5.192178222656249 0.948240234375 5.192178222656249 0.99390087890625 Q 5.192178222656249 1.02517529296875 5.197494873046875 1.043314453125 Q 5.202811523437499 1.06145361328125 5.2165722656249995 1.0645810546875 Q 5.2303330078125 1.06395556640625 5.24722119140625 1.0526967773437501 Q 5.2616074218749995 1.04393994140625 5.281623046875 1.02392431640625 Q 5.301638671875 1.00390869140625 5.3254072265625 0.9670048828125 L 5.3204033203125 1.0145419921875 Q 5.303515136718749 1.033306640625 5.281310302734375 1.0595771484375 Q 5.25910546875 1.08584765625 5.235024169921875 1.109303466796875 Q 5.210942871093749 1.13275927734375 5.186236083984374 1.148396484375 Q 5.161529296874999 1.16403369140625 5.1396372070312495 1.16153173828125 Q 5.1158686523437495 1.158404296875 5.100856933593749 1.134322998046875 Q 5.08584521484375 1.11024169921875 5.08584521484375 1.058326171875 Q 5.08584521484375 1.03268115234375 5.087721679687499 0.9979665527343751 Q 5.08959814453125 0.963251953125 5.092725585937499 0.9250971679687501 Q 5.0958530273437495 0.8869423828125 5.0992932128906245 0.84753662109375 Q 5.1027333984375 0.8081308593750001 5.106173583984375 0.77247802734375 Q 5.10961376953125 0.7368251953125 5.1124284667968745 0.7071145019531251 Q 5.1152431640625 0.67740380859375 5.116494140624999 0.65863916015625 Q 5.1177451171875 0.6398745117187501 5.113053955078125 0.624550048828125 Q 5.10836279296875 0.6092255859375001 5.098667724609374 0.5979667968750001 Q 5.088972656249999 0.5867080078125001 5.075837402343749 0.580765869140625 Q 5.062702148437499 0.57482373046875 5.04706494140625 0.57482373046875 Q 5.0301767578125 0.57482373046875 5.011412109375 0.583267822265625 Q 4.9926474609375 0.5917119140625 4.97325732421875 0.6098510742187501 Q 4.963875 0.6192333984375 4.950427001953124 0.635808837890625 Q 4.9369790039062496 0.65238427734375 4.921341796875 0.6789675292968751 Q 4.90570458984375 0.70555078125 4.8885036621093745 0.74245458984375 Q 4.871302734375 0.7793583984375001 4.8550400390625 0.82877197265625 Q 4.8537890625 0.843158203125 4.853163574218749 0.8569189453125 Q 4.8525380859375 0.8706796875 4.8525380859375 0.88256396484375 Q 4.851287109375 0.91258740234375 4.84878515625 0.94636376953125 Q 4.84690869140625 0.9751362304687501 4.84440673828125 1.01141455078125 Q 4.84190478515625 1.04769287109375 4.8387773437499995 1.08522216796875 L 4.7399501953125 1.1721650390625 Q 4.746830566406249 1.02017138671875 4.752147216796875 0.921031494140625 Q 4.757463867187499 0.8218916015625 4.7605913085937495 0.7643466796875 Q 4.764344238281249 0.6967939453125 4.766846191406249 0.66114111328125 Q 4.76872265625 0.6192333984375 4.75558740234375 0.6017197265625001 Q 4.7424521484375 0.5842060546875001 4.723062011718749 0.5842060546875001 Q 4.70805029296875 0.5842060546875001 4.690849365234374 0.59358837890625 Q 4.6736484375 0.602970703125 4.65801123046875 0.61735693359375 Q 4.6736484375 0.59984326171875 4.692725830078125 0.57982763671875 Q 4.71180322265625 0.5598120117187501 4.73306982421875 0.5429238281250001 Q 4.75433642578125 0.5260356445312501 4.776541259765625 0.5147768554687501 Q 4.798746093749999 0.5035180664062501 4.82063818359375 0.5035180664062501 Q 4.834398925781249 0.5035180664062501 4.844093994140625 0.510711181640625 Q 4.8537890625 0.5179042968750001 4.8587929687499996 0.5341669921875001 M 5.9652817382812495 0.98764599609375 Q 5.959652343749999 0.99640283203125 5.94964453125 1.008599853515625 Q 5.939636718749999 1.020796875 5.92962890625 1.03268115234375 Q 5.918370117187499 1.04644189453125 5.905234863281249 1.060828125 Q 5.888972167968749 1.08084375 5.870207519531249 1.0996083984375 Q 5.85144287109375 1.118373046875 5.832990966796874 1.133072021484375 Q 5.8145390625 1.14777099609375 5.7970253906249996 1.15652783203125 Q 5.779511718749999 1.16528466796875 5.765750976562499 1.1646591796875 Q 5.739480468749999 1.163408203125 5.72947265625 1.132446533203125 Q 5.719464843749999 1.10148486328125 5.719464843749999 1.04268896484375 Q 5.719464843749999 1.01141455078125 5.7213413085937495 0.9751362304687501 Q 5.723217773437499 0.93885791015625 5.726970703125 0.89382275390625 Q 5.713209960937499 0.91571484375 5.700700195312499 0.93385400390625 Q 5.688190429687499 0.9519931640625 5.678182617187499 0.96575390625 Q 5.666923828124999 0.9820166015625 5.655665039062499 0.99515185546875 Q 5.62251416015625 1.0358085937500001 5.591552490234374 1.0670830078125 Q 5.560590820312499 1.098357421875 5.534633056640624 1.1196240234375001 Q 5.508675292968749 1.140890625 5.488972412109375 1.1521494140625 Q 5.469269531249999 1.163408203125 5.4580107421875 1.1646591796875 Q 5.446751953124999 1.16591015625 5.430802001953125 1.1571533203125 Q 5.414852050781249 1.148396484375 5.400465820312499 1.123376953125 Q 5.3860795898437495 1.098357421875 5.375759033203124 1.053322265625 Q 5.365438476562499 1.008287109375 5.366063964843749 0.9363559570312501 Q 5.366689453125 0.8644248046875 5.381388427734374 0.809694580078125 Q 5.396087402343749 0.75496435546875 5.419543212890624 0.713994873046875 Q 5.442999023437499 0.6730253906250001 5.471771484374999 0.6433146972656251 Q 5.5005439453125 0.61360400390625 5.528690917968749 0.5917119140625 Q 5.586861328124999 0.54730224609375 5.640340576171875 0.5207189941406251 Q 5.69381982421875 0.4941357421875 5.745109863281249 0.49288476562500005 Q 5.761998046874999 0.4922592773437501 5.778260742187499 0.49351025390625003 Q 5.792646972656249 0.4947612304687501 5.809222412109374 0.4975759277343751 Q 5.825797851562499 0.5003906250000001 5.8408095703125 0.5060200195312501 L 5.858948730468749 0.4916337890625001 Q 5.8551958007812495 0.5091474609375001 5.851130126953125 0.5391708984375001 Q 5.847064453124999 0.5691943359375 5.8433115234374995 0.6067236328125001 Q 5.83955859375 0.6442529296875 5.8358056640625 0.6867861328125 Q 5.832052734374999 0.7293193359375001 5.829238037109374 0.772165283203125 Q 5.82642333984375 0.81501123046875 5.82392138671875 0.855355224609375 Q 5.821419433593749 0.89569921875 5.819855712890624 0.92885009765625 Q 5.8182919921875 0.9620009765625 5.817979248046874 0.98514404296875 Q 5.817666503906249 1.008287109375 5.8182919921875 1.0170439453125 Q 5.821419433593749 1.0526967773437501 5.834867431640625 1.06583203125 Q 5.848315429687499 1.07896728515625 5.872083984374999 1.063330078125 Q 5.881466308593749 1.05582421875 5.89522705078125 1.0395615234375 Q 5.907111328125 1.02580078125 5.924312255859374 1.001719482421875 Q 5.94151318359375 0.97763818359375 5.9652817382812495 0.93885791015625 L 5.9652817382812495 0.98764599609375 M 5.751364746093749 0.5892099609375 Q 5.691943359374999 0.5817041015625001 5.6537885742187495 0.5817041015625001 Q 5.6131318359375 0.5817041015625001 5.583108398437499 0.59483935546875 Q 5.5530849609374995 0.607974609375 5.531818359374999 0.630179443359375 Q 5.510551757812499 0.65238427734375 5.496791015624999 0.681469482421875 Q 5.4830302734375 0.7105546875000001 5.475211669921874 0.743080078125 Q 5.46739306640625 0.77560546875 5.464578369140624 0.8093818359375 Q 5.461763671875 0.843158203125 5.461763671875 0.87380712890625 Q 5.461763671875 0.8844404296875 5.4630146484374995 0.9025795898437501 Q 5.4642656249999995 0.92071875 5.4677058105468745 0.94135986328125 Q 5.47114599609375 0.9620009765625 5.476462646484374 0.983267578125 Q 5.481779296875 1.0045341796875 5.4902233886718745 1.021735107421875 Q 5.498667480468749 1.03893603515625 5.509926269531249 1.049882080078125 Q 5.521185058593749 1.060828125 5.53619677734375 1.060828125 Q 5.552459472656249 1.060828125 5.575915283203124 1.043001708984375 Q 5.599371093749999 1.02517529296875 5.632521972656249 0.98264208984375 Q 5.651912109374999 0.9563715820312501 5.67130224609375 0.9194677734375001 Q 5.687564941406249 0.888193359375 5.706016845703124 0.84253271484375 Q 5.72446875 0.7968720703125001 5.73885498046875 0.73619970703125 L 5.751364746093749 0.5892099609375 M 6.463170410156249 1.0770908203125 L 6.35933935546875 1.168412109375 Q 6.3712236328125 1.0395615234375 6.37810400390625 0.95261865234375 Q 6.384984374999999 0.86567578125 6.388737304687499 0.8131347656250001 Q 6.393115722656249 0.7512114257812501 6.394366699218749 0.7161840820312501 Q 6.396868652343749 0.67552734375 6.391864746093749 0.650195068359375 Q 6.38686083984375 0.62486279296875 6.376540283203124 0.610789306640625 Q 6.3662197265625 0.5967158203125 6.352771728515624 0.5917119140625 Q 6.33932373046875 0.5867080078125001 6.3261884765625 0.5867080078125001 Q 6.3124277343749995 0.5867080078125001 6.301481689453125 0.5917119140625 Q 6.29053564453125 0.5967158203125 6.280527832031249 0.6070363769531251 Q 6.27052001953125 0.61735693359375 6.260512207031249 0.632681396484375 Q 6.25050439453125 0.648005859375 6.239245605468749 0.6686469726562501 Q 6.229863281249999 0.6867861328125 6.2186044921875 0.71555859375 Q 6.20922216796875 0.7399526367187501 6.196712402343749 0.778107421875 Q 6.18420263671875 0.81626220703125 6.16981640625 0.87130517578125 L 6.16981640625 0.88256396484375 Q 6.1685654296875 0.91258740234375 6.1660634765625 0.94636376953125 Q 6.16418701171875 0.9751362304687501 6.16168505859375 1.01141455078125 Q 6.15918310546875 1.04769287109375 6.1560556640624995 1.08522216796875 L 6.057228515625 1.1721650390625 Q 6.064108886718749 1.02017138671875 6.069425537109375 0.921031494140625 Q 6.074742187499999 0.8218916015625 6.0778696289062495 0.7643466796875 Q 6.081622558593749 0.6967939453125 6.084124511718749 0.66114111328125 Q 6.0860009765625 0.6192333984375 6.07286572265625 0.6017197265625001 Q 6.05973046875 0.5842060546875001 6.040340332031249 0.5842060546875001 Q 6.02532861328125 0.5842060546875001 6.008127685546874 0.59358837890625 Q 5.9909267578125 0.602970703125 5.97528955078125 0.61735693359375 Q 5.9909267578125 0.59984326171875 6.010004150390625 0.57982763671875 Q 6.02908154296875 0.5598120117187501 6.05034814453125 0.5429238281250001 Q 6.07161474609375 0.5260356445312501 6.093819580078125 0.5147768554687501 Q 6.116024414062499 0.5035180664062501 6.13791650390625 0.5035180664062501 Q 6.151677246093749 0.5035180664062501 6.161372314453125 0.510711181640625 Q 6.1710673828125 0.5179042968750001 6.1760712890625 0.5341669921875001 Q 6.18044970703125 0.5454257812500001 6.18170068359375 0.5673178710937501 Q 6.18295166015625 0.5892099609375 6.18295166015625 0.61735693359375 Q 6.18295166015625 0.63549609375 6.182326171874999 0.6561372070312501 Q 6.18170068359375 0.6767783203125 6.18044970703125 0.698044921875 Q 6.1935849609375 0.67615283203125 6.206094726562499 0.658013671875 Q 6.2186044921875 0.6398745117187501 6.228612304687499 0.62736474609375 Q 6.23987109375 0.6123530273437501 6.25050439453125 0.60046875 Q 6.2761494140625 0.5735727539062501 6.303983642578125 0.5513679199218751 Q 6.331817871093749 0.5291630859375 6.358401123046875 0.515715087890625 Q 6.384984374999999 0.50226708984375 6.408752929687499 0.4991396484375 Q 6.432521484375 0.49601220703125004 6.45066064453125 0.50727099609375 Q 6.463170410156249 0.5147768554687501 6.47192724609375 0.52478466796875 Q 6.4806840820312495 0.53479248046875 6.486000732421875 0.5485532226562501 Q 6.4913173828124995 0.5623139648437501 6.493819335937499 0.5813913574218751 Q 6.496321289062499 0.60046875 6.496321289062499 0.6261137695312501 Q 6.496321289062499 0.6455039062500001 6.496321289062499 0.664581298828125 Q 6.496321289062499 0.68365869140625 6.495070312499999 0.703048828125 Q 6.509456542968749 0.68240771484375 6.522279052734374 0.66489404296875 Q 6.5351015624999995 0.64738037109375 6.5457348632812495 0.6342451171875001 Q 6.5576191406249995 0.61860791015625 6.5682524414062495 0.60609814453125 Q 6.5920209960937495 0.5792021484375001 6.617353271484374 0.55856103515625 Q 6.642685546875 0.537919921875 6.666766845703124 0.52478466796875 Q 6.69084814453125 0.5116494140625001 6.7114892578125 0.5063327636718751 Q 6.732130371093749 0.5010161132812501 6.746516601562499 0.50476904296875 Q 6.775914550781249 0.5122749023437501 6.7862351074218745 0.5482404785156251 Q 6.7965556640625 0.5842060546875001 6.7965556640625 0.6455039062500001 Q 6.7965556640625 0.69241552734375 6.7934282226562495 0.73745068359375 Q 6.79030078125 0.78248583984375 6.786860595703125 0.825957275390625 Q 6.78342041015625 0.8694287109375001 6.7802929687499995 0.912274658203125 Q 6.777165527343749 0.95512060546875 6.777165527343749 0.9976538085937501 Q 6.777165527343749 1.0270517578125 6.781856689453124 1.044252685546875 Q 6.786547851562499 1.06145361328125 6.80030859375 1.0645810546875 Q 6.8140693359375 1.06583203125 6.83095751953125 1.0570751953125 Q 6.84534375 1.0495693359375 6.865359375 1.031117431640625 Q 6.885375 1.01266552734375 6.9091435546875 0.9757617187500001 L 6.9041396484375 1.0145419921875 Q 6.887251464843749 1.033306640625 6.865046630859375 1.0595771484375 Q 6.842841796875 1.08584765625 6.818760498046874 1.109303466796875 Q 6.794679199218749 1.13275927734375 6.769972412109374 1.148396484375 Q 6.745265625 1.16403369140625 6.72337353515625 1.16153173828125 Q 6.69960498046875 1.158404296875 6.684593261718749 1.134322998046875 Q 6.66958154296875 1.11024169921875 6.66958154296875 1.058326171875 Q 6.66958154296875 1.00578515625 6.673647216796875 0.954182373046875 Q 6.677712890624999 0.9025795898437501 6.681778564453125 0.851602294921875 Q 6.685844238281249 0.800625 6.6889716796875 0.7496477050781251 Q 6.69209912109375 0.69867041015625 6.69022265625 0.648005859375 Q 6.6889716796875 0.6179824218750001 6.6748981933593745 0.60484716796875 Q 6.660824707031249 0.5917119140625 6.642685546875 0.5917119140625 Q 6.6189169921875 0.5917119140625 6.5989013671875 0.6098510742187501 Q 6.58951904296875 0.6192333984375 6.5763837890625 0.6370598144531251 Q 6.56324853515625 0.65488623046875 6.548549560546874 0.68365869140625 Q 6.5338505859375 0.7124311523437501 6.517900634765624 0.752775146484375 Q 6.5019506835937495 0.793119140625 6.4863134765625 0.8469111328125001 Q 6.4813095703125 0.90570703125 6.4747419433593745 0.962939208984375 Q 6.46817431640625 1.02017138671875 6.463170410156249 1.0770908203125 M 7.261918945312499 0.95574609375 L 7.248158203125 1.0070361328125 Q 7.23752490234375 1.01766943359375 7.2222004394531245 1.033619384765625 Q 7.2068759765624995 1.0495693359375 7.188424072265624 1.067395751953125 Q 7.16997216796875 1.08522216796875 7.1499565429687495 1.1027358398437501 Q 7.129940917968749 1.12024951171875 7.11055078125 1.13401025390625 Q 7.091160644531249 1.14777099609375 7.073334228515624 1.155589599609375 Q 7.055507812499999 1.163408203125 7.0417470703125 1.16153173828125 Q 7.02048046875 1.158404296875 7.0114108886718745 1.130570068359375 Q 7.002341308593749 1.1027358398437501 7.002341308593749 1.04018701171875 Q 7.002341308593749 1.02892822265625 7.003279541015624 1.003595947265625 Q 7.0042177734374995 0.978263671875 7.005781494140624 0.9444873046875 Q 7.00734521484375 0.9107109375 7.009534423828124 0.870366943359375 Q 7.011723632812499 0.8300229492187501 7.014225585937499 0.789053466796875 Q 7.016727539062499 0.748083984375 7.019542236328125 0.708365478515625 Q 7.022356933593749 0.6686469726562501 7.025484375 0.63549609375 Q 7.027360839843749 0.61360400390625 7.016727539062499 0.6039089355468751 Q 7.00609423828125 0.5942138671875 6.990457031249999 0.5942138671875 Q 6.977321777343749 0.5942138671875 6.962935546874999 0.60046875 Q 6.9485493164062495 0.6067236328125001 6.9366650390624995 0.61735693359375 Q 6.961684570312499 0.5929628906250001 6.981074707031249 0.5763874511718751 Q 7.00046484375 0.5598120117187501 7.014225585937499 0.5491787109375 Q 7.030488281249999 0.5372944335937501 7.0417470703125 0.5291630859375 Q 7.05738427734375 0.5197807617187501 7.072083251953124 0.519468017578125 Q 7.0867822265625 0.5191552734375 7.098353759765624 0.5266611328125 Q 7.109925292968749 0.5341669921875001 7.116492919921875 0.5485532226562501 Q 7.123060546874999 0.562939453125 7.12243505859375 0.582955078125 Q 7.121809570312499 0.5967158203125 7.119620361328124 0.627052001953125 Q 7.11743115234375 0.6573881835937501 7.114616455078124 0.6961684570312501 Q 7.1118017578125 0.7349487304687501 7.108361572265625 0.778107421875 Q 7.1049213867187495 0.82126611328125 7.102106689453125 0.86129736328125 Q 7.099291992187499 0.90132861328125 7.097102783203124 0.93385400390625 Q 7.094913574218749 0.96637939453125 7.0942880859374995 0.98389306640625 Q 7.0930371093749995 1.0195458984375 7.102106689453125 1.0414379882812501 Q 7.111176269531249 1.063330078125 7.131191894531249 1.063330078125 Q 7.14620361328125 1.063330078125 7.165906494140624 1.05019482421875 Q 7.185609374999999 1.0370595703125 7.204999511718749 1.0195458984375 Q 7.2243896484375 1.0020322265625001 7.239714111328125 0.98389306640625 Q 7.25503857421875 0.96575390625 7.261918945312499 0.95574609375 M 7.1555859375 0.033150878906250014 Q 7.1568369140625 0.06379980468750013 7.154022216796874 0.08788110351562506 Q 7.1512075195312494 0.11196240234374999 7.14745458984375 0.12885058593749998 Q 7.143076171874999 0.14886621093750008 7.1368212890625 0.16387792968750003 Q 7.1293154296875 0.1788896484375001 7.113678222656249 0.19640332031250007 Q 7.100542968749999 0.21141503906250003 7.0777126464843745 0.23111791992187503 Q 7.05488232421875 0.25082080078125 7.018604003906249 0.27271289062500004 Q 7.030488281249999 0.2489443359375001 7.0373686523437495 0.22236108398437504 Q 7.0442490234375 0.1957778320312501 7.0480019531249996 0.1732602539062501 Q 7.05238037109375 0.14698974609375015 7.05363134765625 0.12134472656250006 L 7.1555859375 0.033150878906250014 M 7.695382324218749 0.5466767578125 Q 7.689127441406249 0.5535571289062501 7.677243164062499 0.5648159179687501 Q 7.666609863281249 0.5741982421875 7.648157958984374 0.588897216796875 Q 7.6297060546874995 0.6035961914062501 7.599682617187499 0.6236118164062501 Q 7.6071884765624995 0.6167314453125 7.607813964843749 0.61110205078125 Q 7.6084394531249995 0.60547265625 7.606562988281249 0.6010942382812501 Q 7.604061035156249 0.5960903320312501 7.598431640624999 0.5917119140625 Q 7.588423828124999 0.58608251953125 7.566218994140624 0.582642333984375 Q 7.544014160156249 0.5792021484375001 7.518994628906249 0.5792021484375001 Q 7.497728027343749 0.5792021484375001 7.478963378906249 0.5820168457031251 Q 7.46019873046875 0.5848315429687501 7.448314453125 0.5917119140625 Q 7.437055664062499 0.5985922851562501 7.424233154296874 0.62486279296875 Q 7.411410644531249 0.6511333007812501 7.400777343749999 0.68866259765625 Q 7.390144042968749 0.72619189453125 7.3832636718749995 0.770914306640625 Q 7.376383300781249 0.81563671875 7.376383300781249 0.8594208984375 Q 7.376383300781249 0.8800620117187501 7.3785725097656245 0.9044560546875 Q 7.38076171875 0.92885009765625 7.3857656249999994 0.9529313964843751 Q 7.390769531249999 0.9770126953125 7.399526367187499 0.999217529296875 Q 7.408283203124999 1.02142236328125 7.421418457031249 1.038310546875 Q 7.434553710937499 1.05519873046875 7.4520673828124995 1.0645810546875 Q 7.469581054687499 1.07396337890625 7.493349609375 1.0720869140625 Q 7.508361328124999 1.0695849609375 7.527125976562499 1.05895166015625 Q 7.542763183593749 1.05019482421875 7.563717041015624 1.031742919921875 Q 7.5846708984374995 1.0132910156250001 7.6084394531249995 0.98014013671875 L 7.660980468749999 0.9645029296875001 Q 7.627829589843749 1.0020322265625001 7.601559082031249 1.028615478515625 Q 7.5752885742187495 1.05519873046875 7.557149414062499 1.0720869140625 Q 7.535882812499999 1.0921025390625 7.518994628906249 1.10398681640625 Q 7.498353515624999 1.118373046875 7.48021435546875 1.129944580078125 Q 7.462075195312499 1.14151611328125 7.4448742675781245 1.149334716796875 Q 7.427673339843749 1.1571533203125 7.410785156249999 1.16028076171875 Q 7.39389697265625 1.163408203125 7.376383300781249 1.16153173828125 Q 7.361371582031249 1.16028076171875 7.3441706542968745 1.1446435546875 Q 7.326969726562499 1.12900634765625 7.311958007812499 1.101172119140625 Q 7.296946289062499 1.073337890625 7.286938476562499 1.03393212890625 Q 7.276930664062499 0.9945263671875 7.276930664062499 0.9451127929687501 Q 7.276930664062499 0.8913208007812501 7.287251220703125 0.8362778320312501 Q 7.297571777343749 0.78123486328125 7.3182128906249995 0.730257568359375 Q 7.338854003906249 0.6792802734375001 7.370753906249999 0.635808837890625 Q 7.402653808593749 0.5923374023437501 7.445812499999999 0.5623139648437501 Q 7.468330078124999 0.5466767578125 7.494913330078124 0.53479248046875 Q 7.521496582031249 0.5229082031250001 7.548079833984374 0.51540234375 Q 7.574663085937499 0.507896484375 7.599369873046874 0.50476904296875 Q 7.624076660156249 0.5016416015625 7.642841308593749 0.50226708984375 Q 7.680370605468749 0.5041435546875 7.693818603515624 0.516340576171875 Q 7.707266601562499 0.5285375976562501 7.695382324218749 0.5466767578125 M 8.066296874999999 0.5266611328125 Q 8.06316943359375 0.5341669921875001 8.05191064453125 0.5454257812500001 Q 8.042528320312499 0.55543359375 8.024076416015625 0.571383544921875 Q 8.00562451171875 0.5873334960937501 7.972473632812499 0.61110205078125 Q 7.97309912109375 0.60046875 7.9696589355468745 0.5932756347656251 Q 7.9662187499999995 0.58608251953125 7.96121484375 0.58232958984375 Q 7.955585449218749 0.577951171875 7.948705078124999 0.5760747070312501 Q 7.908673828125 0.56856884765625 7.88553076171875 0.5760747070312501 Q 7.879901367187499 0.5785766601562501 7.877086669921875 0.588271728515625 Q 7.87427197265625 0.5979667968750001 7.87427197265625 0.6123530273437501 Q 7.87427197265625 0.6467548828125 7.887094482421874 0.6739636230468751 Q 7.899916992187499 0.7011723632812501 7.91930712890625 0.724628173828125 Q 7.938697265625 0.748083984375 7.96121484375 0.7693505859375 Q 7.983732421875 0.7906171875000001 8.00312255859375 0.8128220214843751 Q 8.0225126953125 0.8350268554687501 8.035335205078125 0.8594208984375 Q 8.04815771484375 0.8838149414062499 8.04815771484375 0.913212890625 Q 8.04815771484375 0.938232421875 8.037837158203125 0.964815673828125 Q 8.0275166015625 0.99139892578125 8.00625 1.0132910156250001 Q 7.98811083984375 1.0320556640625 7.967156982421875 1.0520712890625 Q 7.946203124999999 1.0720869140625 7.923998291015625 1.09022607421875 Q 7.90179345703125 1.108365234375 7.878650390624999 1.123376953125 Q 7.85550732421875 1.138388671875 7.83298974609375 1.14777099609375 Q 7.794834960937499 1.16153173828125 7.7598076171875 1.16153173828125 Q 7.7360390625 1.16153173828125 7.7185253906249995 1.1546513671875 Q 7.701011718749999 1.14777099609375 7.6972587890624995 1.133384765625 Q 7.694131347656249 1.1221259765625 7.70413916015625 1.105550537109375 Q 7.714146972656249 1.08897509765625 7.72915869140625 1.072399658203125 Q 7.74417041015625 1.05582421875 7.760745849609375 1.0411252441406251 Q 7.7773212890625 1.02642626953125 7.78670361328125 1.018294921875 Q 7.78545263671875 1.048318359375 7.800777099609374 1.061140869140625 Q 7.816101562499999 1.07396337890625 7.8498779296875 1.07583984375 Q 7.866766113281249 1.0770908203125 7.88553076171875 1.073650634765625 Q 7.90429541015625 1.07021044921875 7.920245361328124 1.063017333984375 Q 7.9361953125 1.05582421875 7.946515869140624 1.0445654296875 Q 7.956836425781249 1.033306640625 7.9562109375 1.018294921875 Q 7.9549599609375 0.983267578125 7.941511962890624 0.954182373046875 Q 7.92806396484375 0.9250971679687501 7.908361083984374 0.899139404296875 Q 7.888658203125 0.873181640625 7.866453369140625 0.848474853515625 Q 7.844248535156249 0.8237680664062501 7.8251711425781245 0.798123046875 Q 7.80609375 0.77247802734375 7.7932712402343745 0.74370556640625 Q 7.780448730468749 0.71493310546875 7.780448730468749 0.68115673828125 Q 7.780448730468749 0.6667705078125 7.783576171875 0.65363525390625 Q 7.78670361328125 0.6405000000000001 7.794834960937499 0.62861572265625 Q 7.80922119140625 0.60734912109375 7.83424072265625 0.5842060546875001 Q 7.85926025390625 0.56106298828125 7.8874072265625 0.5416728515625 Q 7.915554199218749 0.52228271484375 7.94307568359375 0.5088347167968751 Q 7.97059716796875 0.49538671875000007 7.99061279296875 0.49288476562500005 Q 8.0100029296875 0.49038281250000004 8.025327392578124 0.49257202148437507 Q 8.040651855468749 0.4947612304687501 8.05065966796875 0.49976513671875 Q 8.06066748046875 0.50476904296875 8.064733154296874 0.5119621582031251 Q 8.068798828124999 0.5191552734375 8.066296874999999 0.5266611328125" fill="#173054" fill-rule="nonzero"></path></g><g></g></g><defs><clipPath id="SvgjsClipPath69593"><path d=" M 0 -8.023314505960473 h 8.027952074291562 v 8.028314505960473 h -8.027952074291562 Z"></path></clipPath><clipPath id="SvgjsClipPath69591bf799424-4096-4452-953e-8729a46e071f"><path d=" M 0 -8.023314505960473 L 8.027952074291562 -8.023314505960473 L 8.027952074291562 0.005000000000000782 L 0 0.005000000000000782 Z"></path></clipPath></defs></svg>